<svg width="126" height="126" viewBox="0 0 126 126" fill="none" xmlns="http://www.w3.org/2000/svg">
<path d="M122.618 46.057C107.179 38.3239 94.7226 28.5836 88.4935 9.7889C88.021 8.37101 87.0051 7.19864 85.6688 6.5293C84.3325 5.85997 82.7852 5.74842 81.3667 6.21914C62.5509 12.4692 47.282 8.32192 31.8602 0.597259C30.5228 -0.0726189 28.9741 -0.183789 27.5547 0.288203C26.1354 0.760194 24.9617 1.77668 24.2918 3.11406L9.12874 33.3863C-7.12884 65.8437 -1.62265 96.1979 25.2573 123.129C26.1204 123.994 27.2412 124.555 28.4509 124.728C66.1201 130.14 93.7227 116.359 109.98 83.9018L125.143 53.6296C126.537 50.8478 125.4 47.4504 122.618 46.057ZM101.572 79.6796C87.2759 108.221 64.1895 119.974 31.0259 115.579C7.64541 91.652 3.23294 66.1243 17.5288 37.5833L31.0249 10.6392C44.4595 16.9584 60.6653 21.8167 80.8131 16.2024C88.3616 35.6791 101.966 45.7523 115.068 52.7354L101.572 79.6796ZM48.638 69.9021L82.0145 58.803C82.6009 58.608 83.2199 58.5304 83.8363 58.5746C84.4527 58.6189 85.0543 58.7841 85.6068 59.0609C86.1594 59.3376 86.652 59.7205 87.0565 60.1876C87.4611 60.6548 87.7697 61.197 87.9647 61.7834C88.1597 62.3698 88.2373 62.9889 88.193 63.6053C88.1488 64.2216 87.9836 64.8233 87.7068 65.3758C87.4301 65.9283 87.0472 66.4209 86.5801 66.8255C86.1129 67.2301 85.5707 67.5386 84.9843 67.7336L47.1425 80.3176C46.5562 80.5134 45.9369 80.5917 45.3203 80.5478C44.7037 80.5039 44.1018 80.3388 43.549 80.062C42.9963 79.7851 42.5036 79.4019 42.0992 78.9344C41.6948 78.4668 41.3866 77.9241 41.1923 77.3372L34.9003 58.4163C34.5065 57.2321 34.5992 55.9399 35.1581 54.824C35.7171 53.7081 36.6964 52.8599 37.8807 52.4661C39.065 52.0723 40.3572 52.1651 41.4731 52.724C42.589 53.2829 43.4371 54.2622 43.8309 55.4465L48.638 69.9021Z" fill="#3C929D" fill-opacity="0.1"/>
</svg>
