<svg width="33" height="27" viewBox="0 0 33 27" fill="none" xmlns="http://www.w3.org/2000/svg">
<path d="M32.3437 8.78887C32.3437 9.20137 32.2687 9.59043 32.1187 9.95606C31.9687 10.3217 31.7483 10.6498 31.4577 10.9404L27.1968 15.2014C27.3655 15.6139 27.4499 16.0498 27.4499 16.5092C27.4499 17.4842 27.103 18.3186 26.4093 19.0123L21.403 24.0186C21.0187 24.4029 20.578 24.6936 20.0812 24.8904C19.5937 25.0967 19.0827 25.1998 18.5483 25.1998C18.1921 25.1998 17.8405 25.1576 17.4937 25.0732C17.1187 25.467 16.678 25.7623 16.1718 25.9592C15.6655 26.1654 15.1452 26.2686 14.6108 26.2686C14.189 26.2686 13.814 26.217 13.4858 26.1139C13.1671 26.0201 12.8718 25.8889 12.5999 25.7201C12.328 25.5514 12.0655 25.3498 11.8124 25.1154C11.5593 24.8904 11.3015 24.642 11.039 24.3701L10.9124 24.2436C10.4062 24.2154 9.92334 24.0982 9.46396 23.892C9.01396 23.6951 8.61084 23.4186 8.25459 23.0623L3.2624 18.0701C2.9624 17.7701 2.73271 17.4467 2.57334 17.0998C2.41396 16.7436 2.33428 16.3592 2.33428 15.9467C2.33428 15.8904 2.33428 15.8342 2.33428 15.7779C2.34365 15.7123 2.35303 15.6467 2.3624 15.5811C2.19365 15.3092 2.06709 15.0232 1.98271 14.7232C1.89834 14.4139 1.85615 14.0998 1.85615 13.7811C1.85615 13.2373 1.97803 12.7217 2.22178 12.2342C1.95928 11.9811 1.69678 11.7373 1.43428 11.5029C1.17178 11.2592 0.932715 11.0061 0.71709 10.7436C0.51084 10.4717 0.337402 10.1811 0.196777 9.87168C0.0655272 9.55293 -9.77516e-05 9.19199 -9.77516e-05 8.78887C-9.77516e-05 8.36699 0.0749022 7.98262 0.224902 7.63574C0.384277 7.27949 0.60459 6.95137 0.88584 6.65137L6.1874 0.941993C6.46865 0.641993 6.80146 0.412305 7.18584 0.25293C7.57021 0.0841803 7.96865 -0.000194697 8.38115 -0.000194697C9.21553 -0.000194697 9.92803 0.295118 10.5187 0.885743L13.1202 3.48731C13.5421 3.00918 14.0062 2.64356 14.5124 2.39043C15.028 2.13731 15.6093 2.01074 16.2562 2.01074C16.5843 2.01074 16.8843 2.04356 17.1562 2.10918C17.428 2.16543 17.6812 2.25449 17.9155 2.37637C18.1593 2.49824 18.3937 2.64356 18.6187 2.81231C18.8437 2.98106 19.0733 3.17324 19.3077 3.38887L21.8108 0.885743C22.1015 0.595118 22.4296 0.374805 22.7952 0.224805C23.1608 0.0748053 23.5499 -0.000194697 23.9624 -0.000194697C24.3562 -0.000194697 24.7405 0.0748053 25.1155 0.224805C25.4999 0.374805 25.828 0.595118 26.0999 0.885743L31.514 6.70762C32.0671 7.30762 32.3437 8.00137 32.3437 8.78887ZM24.2718 18.2951C24.3937 18.1732 24.5202 18.0514 24.6515 17.9295C24.7921 17.7982 24.9187 17.6623 25.0312 17.5217C25.1437 17.3717 25.2374 17.217 25.3124 17.0576C25.3874 16.8982 25.4249 16.7201 25.4249 16.5232C25.4249 16.392 25.4015 16.2701 25.3546 16.1576C25.3171 16.0451 25.2843 15.9279 25.2562 15.8061C25.2093 15.7404 25.1624 15.6795 25.1155 15.6232C25.078 15.5576 25.0312 15.4967 24.9749 15.4404L18.1265 8.59199L15.3983 11.2357C14.9858 11.6295 14.5499 11.9248 14.0905 12.1217C13.6312 12.3186 13.1155 12.417 12.5437 12.417C12.1874 12.417 11.8077 12.3607 11.4046 12.2482C11.0015 12.1264 10.6265 11.9529 10.2796 11.7279C9.94209 11.5029 9.66084 11.2311 9.43584 10.9123C9.21084 10.5842 9.09834 10.2139 9.09834 9.80137C9.09834 9.24824 9.29521 8.77481 9.68896 8.38106L12.4171 5.62481L9.09834 2.30606C8.90146 2.10918 8.6624 2.01074 8.38115 2.01074C8.2499 2.01074 8.11865 2.03418 7.9874 2.08106C7.86553 2.12793 7.75771 2.20293 7.66396 2.30606L2.32021 8.08574C2.12334 8.30137 2.0249 8.54043 2.0249 8.80293C2.0249 9.07481 2.12334 9.30918 2.32021 9.50606L4.34521 11.4889C4.40146 11.4514 4.47178 11.4186 4.55615 11.3904C4.6499 11.3529 4.74834 11.3248 4.85146 11.3061C4.95459 11.2873 5.05303 11.2732 5.14678 11.2639C5.2499 11.2545 5.33428 11.2498 5.3999 11.2498C5.67178 11.2498 5.93428 11.2967 6.1874 11.3904C6.4499 11.4748 6.68896 11.6014 6.90459 11.7701C7.12021 11.9295 7.30771 12.1217 7.46709 12.3467C7.62646 12.5623 7.74365 12.8014 7.81865 13.0639C8.3249 13.2326 8.73271 13.4951 9.04209 13.8514C9.36084 14.2076 9.5999 14.6389 9.75928 15.1451C10.003 15.2014 10.2421 15.2998 10.4765 15.4404C10.7108 15.5717 10.9265 15.7357 11.1233 15.9326C11.3202 16.1201 11.4843 16.3311 11.6155 16.5654C11.7562 16.7904 11.8499 17.0295 11.8968 17.2826C12.2249 17.3576 12.5249 17.4889 12.7968 17.6764C13.078 17.8639 13.3171 18.0936 13.514 18.3654C13.7108 18.6279 13.8655 18.9186 13.978 19.2373C14.0905 19.5561 14.1468 19.8795 14.1468 20.2076C14.1468 20.7982 13.9968 21.3326 13.6968 21.8107C13.3968 22.2889 12.9843 22.6639 12.4593 22.9357C12.6093 23.0764 12.7593 23.2217 12.9093 23.3717C13.0593 23.5311 13.2187 23.6717 13.3874 23.7936C13.5562 23.9248 13.7343 24.0326 13.9218 24.117C14.1187 24.2014 14.3296 24.2436 14.5546 24.2436C14.9202 24.2436 15.2577 24.1451 15.5671 23.9482C15.8858 23.7607 16.1671 23.5451 16.4108 23.3014L14.6108 21.5154C14.5077 21.4123 14.4562 21.2951 14.4562 21.1639C14.4562 21.0326 14.5077 20.9154 14.6108 20.8123C14.714 20.7092 14.8312 20.6576 14.9624 20.6576C15.1124 20.6576 15.2624 20.7232 15.4124 20.8545C15.5624 20.9764 15.7171 21.1311 15.8765 21.3186C16.0452 21.4967 16.2233 21.6982 16.4108 21.9232C16.5983 22.1389 16.7999 22.3404 17.0155 22.5279C17.2405 22.7061 17.489 22.8607 17.7608 22.992C18.0327 23.1139 18.3327 23.1748 18.6608 23.1748C18.8577 23.1748 19.0452 23.142 19.2233 23.0764C19.4015 23.0014 19.5702 22.9076 19.7296 22.7951C19.889 22.6826 20.039 22.5561 20.1796 22.4154C20.3202 22.2748 20.4562 22.1342 20.5874 21.9936L20.6858 21.8811L18.1968 19.3779C18.0937 19.2748 18.0421 19.1576 18.0421 19.0264C18.0421 18.8857 18.089 18.7686 18.1827 18.6748C18.2858 18.5717 18.4077 18.5201 18.5483 18.5201C18.689 18.5201 18.8062 18.567 18.8999 18.6607L21.403 21.1639L23.5546 19.0123L21.0515 16.5092C20.9483 16.4061 20.8968 16.2889 20.8968 16.1576C20.8968 16.017 20.9437 15.8998 21.0374 15.8061C21.1405 15.7029 21.2624 15.6514 21.403 15.6514C21.553 15.6514 21.6749 15.6982 21.7687 15.792L24.2718 18.2951ZM25.2702 14.1467L30.0233 9.50606C30.2202 9.30918 30.3187 9.07012 30.3187 8.78887C30.3187 8.53574 30.2202 8.30137 30.0233 8.08574L24.6796 2.30606C24.5952 2.21231 24.4827 2.14199 24.3421 2.09512C24.2108 2.03887 24.0843 2.01074 23.9624 2.01074C23.6812 2.01074 23.4421 2.10918 23.2452 2.30606L19.3077 6.25762L17.6905 4.62637C17.503 4.43887 17.2827 4.29356 17.0296 4.19043C16.7858 4.08731 16.528 4.03574 16.2562 4.03574C15.9843 4.03574 15.7358 4.08731 15.5108 4.19043C15.2952 4.28418 15.089 4.41074 14.8921 4.57012C14.7046 4.72012 14.5218 4.88887 14.3437 5.07637C14.1749 5.26387 14.0062 5.44668 13.8374 5.62481L10.4062 9.09824C10.2093 9.29512 10.1108 9.53418 10.1108 9.81543C10.1108 10.0592 10.1952 10.2795 10.364 10.4764C10.5421 10.6639 10.753 10.8279 10.9968 10.9686C11.2405 11.1092 11.4983 11.217 11.7702 11.292C12.0421 11.367 12.2765 11.4045 12.4733 11.4045C12.9233 11.4045 13.3265 11.3342 13.6827 11.1936C14.0483 11.0529 14.3858 10.8279 14.6952 10.5186C15.2765 9.93731 15.8624 9.37012 16.453 8.81699C17.053 8.25449 17.639 7.67793 18.2108 7.08731L25.2702 14.1467ZM13.1343 20.1514C13.1343 19.8889 13.078 19.6404 12.9655 19.4061C12.8624 19.1623 12.7171 18.9514 12.5296 18.7732C12.3515 18.5951 12.1405 18.4545 11.8968 18.3514C11.6624 18.2389 11.4187 18.1826 11.1655 18.1826C11.1374 18.1826 11.1046 18.1873 11.0671 18.1967C11.039 18.1967 11.0108 18.1967 10.9827 18.1967L10.9968 18.0279C10.9968 17.7654 10.9405 17.5123 10.828 17.2686C10.7249 17.0248 10.5796 16.8139 10.3921 16.6357C10.214 16.4576 10.003 16.317 9.75928 16.2139C9.5249 16.1014 9.27646 16.0451 9.01396 16.0451C8.98584 16.0451 8.95303 16.0498 8.91553 16.0592C8.8874 16.0592 8.85928 16.0592 8.83115 16.0592C8.8499 15.9842 8.85928 15.9279 8.85928 15.8904C8.85928 15.6561 8.80771 15.4217 8.70459 15.1873C8.60146 14.9529 8.46084 14.742 8.28271 14.5545C8.11396 14.3576 7.9124 14.2029 7.67803 14.0904C7.45303 13.9686 7.21865 13.9076 6.9749 13.9076H6.90459C6.90459 13.6826 6.86709 13.4717 6.79209 13.2748C6.72646 13.0779 6.62803 12.9045 6.49678 12.7545C6.3749 12.6045 6.22021 12.4873 6.03271 12.4029C5.84521 12.3092 5.63428 12.2623 5.3999 12.2623C5.20303 12.2623 5.01084 12.3045 4.82334 12.3889C4.64521 12.4639 4.48584 12.567 4.34521 12.6982C4.20459 12.8295 4.09209 12.9889 4.00771 13.1764C3.92334 13.3545 3.88115 13.542 3.88115 13.7389C3.88115 14.0764 3.95146 14.3482 4.09209 14.5545C4.24209 14.7514 4.42959 14.9576 4.65459 15.1732C4.57959 15.2764 4.51396 15.3842 4.45771 15.4967C4.41084 15.6092 4.3874 15.7311 4.3874 15.8623C4.3874 16.0029 4.42021 16.1436 4.48584 16.2842C4.56084 16.4248 4.6499 16.5607 4.75303 16.692C4.85615 16.8139 4.96396 16.9311 5.07646 17.0436C5.19834 17.1561 5.30615 17.2592 5.3999 17.3529L9.68896 21.642C9.87646 21.8295 10.0874 21.9701 10.3218 22.0639C10.5655 22.1482 10.814 22.1904 11.0671 22.1904C11.3671 22.1904 11.6437 22.1436 11.8968 22.0498C12.1499 21.9467 12.3655 21.8061 12.5437 21.6279C12.7312 21.4404 12.8765 21.2248 12.9796 20.9811C13.0827 20.7279 13.1343 20.4514 13.1343 20.1514Z" fill="#1A2E30"/>
</svg>
