<svg width="33" height="30" viewBox="0 0 33 30" fill="none" xmlns="http://www.w3.org/2000/svg">
<path d="M28.2937 -0.000194697C28.8374 -0.000194697 29.353 0.107618 29.8405 0.323243C30.3374 0.538868 30.7687 0.829493 31.1343 1.19512C31.5093 1.56074 31.8046 1.99199 32.0202 2.48887C32.2358 2.97637 32.3437 3.49199 32.3437 4.03574V18.1826C32.3437 18.7451 32.2358 19.2748 32.0202 19.7717C31.814 20.2592 31.528 20.6857 31.1624 21.0514C30.7968 21.417 30.3655 21.7076 29.8687 21.9232C29.3812 22.1295 28.8562 22.2326 28.2937 22.2326H10.9405L4.03584 29.1373V22.2326C3.48271 22.2326 2.9624 22.1248 2.4749 21.9092C1.9874 21.6936 1.56084 21.4029 1.19521 21.0373C0.82959 20.6623 0.538965 20.2311 0.32334 19.7436C0.107715 19.2561 -9.77516e-05 18.7357 -9.77516e-05 18.1826V4.03574C-9.77516e-05 3.49199 0.107715 2.97637 0.32334 2.48887C0.538965 1.99199 0.82959 1.56074 1.19521 1.19512C1.57021 0.829493 2.00146 0.538868 2.48896 0.323243C2.97646 0.107618 3.49678 -0.000194697 4.0499 -0.000194697H28.2937ZM30.3187 18.1826V4.03574C30.3187 3.75449 30.2624 3.49199 30.1499 3.24824C30.0468 3.00449 29.9015 2.79356 29.714 2.61543C29.5358 2.42793 29.3249 2.28262 29.0812 2.17949C28.8374 2.06699 28.5749 2.01074 28.2937 2.01074H4.0499C3.76865 2.01074 3.50615 2.06699 3.2624 2.17949C3.01865 2.28262 2.80303 2.42793 2.61553 2.61543C2.4374 2.79356 2.29209 3.00449 2.17959 3.24824C2.07646 3.49199 2.0249 3.75449 2.0249 4.03574V18.1826C2.0249 18.4639 2.07646 18.7311 2.17959 18.9842C2.28271 19.2279 2.42334 19.4436 2.60146 19.6311C2.78896 19.8092 3.00459 19.9498 3.24834 20.0529C3.50146 20.1561 3.76865 20.2076 4.0499 20.2076H6.06084V24.2576L10.1108 20.2076H28.2937C28.5749 20.2076 28.8374 20.1561 29.0812 20.0529C29.3249 19.9498 29.5358 19.8092 29.714 19.6311C29.9015 19.4436 30.0468 19.2279 30.1499 18.9842C30.2624 18.7311 30.3187 18.4639 30.3187 18.1826ZM9.09834 9.09824C9.37959 9.09824 9.64209 9.14981 9.88584 9.25293C10.1296 9.35606 10.3405 9.50137 10.5187 9.68887C10.7062 9.86699 10.8515 10.0779 10.9546 10.3217C11.0671 10.5654 11.1233 10.8279 11.1233 11.1092C11.1233 11.3904 11.0671 11.6529 10.9546 11.8967C10.8515 12.1404 10.7062 12.3561 10.5187 12.5436C10.3405 12.7217 10.1296 12.867 9.88584 12.9795C9.64209 13.0826 9.37959 13.1342 9.09834 13.1342C8.81709 13.1342 8.55459 13.0826 8.31084 12.9795C8.06709 12.867 7.85146 12.7217 7.66396 12.5436C7.48584 12.3561 7.34053 12.1404 7.22803 11.8967C7.1249 11.6529 7.07334 11.3904 7.07334 11.1092C7.07334 10.8279 7.1249 10.5654 7.22803 10.3217C7.34053 10.0779 7.48584 9.86699 7.66396 9.68887C7.85146 9.50137 8.06709 9.35606 8.31084 9.25293C8.55459 9.14981 8.81709 9.09824 9.09834 9.09824ZM16.1718 9.09824C16.453 9.09824 16.7155 9.14981 16.9593 9.25293C17.203 9.35606 17.414 9.50137 17.5921 9.68887C17.7796 9.86699 17.9249 10.0779 18.028 10.3217C18.1405 10.5654 18.1968 10.8279 18.1968 11.1092C18.1968 11.3904 18.1405 11.6529 18.028 11.8967C17.9249 12.1404 17.7796 12.3561 17.5921 12.5436C17.414 12.7217 17.203 12.867 16.9593 12.9795C16.7155 13.0826 16.453 13.1342 16.1718 13.1342C15.8905 13.1342 15.628 13.0826 15.3843 12.9795C15.1405 12.867 14.9249 12.7217 14.7374 12.5436C14.5593 12.3561 14.414 12.1404 14.3015 11.8967C14.1983 11.6529 14.1468 11.3904 14.1468 11.1092C14.1468 10.8279 14.1983 10.5654 14.3015 10.3217C14.414 10.0779 14.5593 9.86699 14.7374 9.68887C14.9249 9.50137 15.1405 9.35606 15.3843 9.25293C15.628 9.14981 15.8905 9.09824 16.1718 9.09824ZM23.2452 9.09824C23.5265 9.09824 23.789 9.14981 24.0327 9.25293C24.2765 9.35606 24.4874 9.50137 24.6655 9.68887C24.853 9.86699 24.9983 10.0779 25.1015 10.3217C25.214 10.5654 25.2702 10.8279 25.2702 11.1092C25.2702 11.3904 25.214 11.6529 25.1015 11.8967C24.9983 12.1404 24.853 12.3561 24.6655 12.5436C24.4874 12.7217 24.2765 12.867 24.0327 12.9795C23.789 13.0826 23.5265 13.1342 23.2452 13.1342C22.964 13.1342 22.7015 13.0826 22.4577 12.9795C22.214 12.867 21.9983 12.7217 21.8108 12.5436C21.6327 12.3561 21.4874 12.1404 21.3749 11.8967C21.2718 11.6529 21.2202 11.3904 21.2202 11.1092C21.2202 10.8279 21.2718 10.5654 21.3749 10.3217C21.4874 10.0779 21.6327 9.86699 21.8108 9.68887C21.9983 9.50137 22.214 9.35606 22.4577 9.25293C22.7015 9.14981 22.964 9.09824 23.2452 9.09824Z" fill="#1A2E30"/>
</svg>
