<svg width="55" height="55" viewBox="0 0 55 55" fill="none" xmlns="http://www.w3.org/2000/svg">
<path d="M34.8058 42.8266C36.8103 40.8207 37.8125 38.3854 37.8125 35.5208C37.8125 32.6562 36.8103 30.2217 34.8058 28.2173C32.8014 26.2128 30.3661 25.2098 27.5 25.2083C24.6339 25.2068 22.1994 26.2098 20.1965 28.2173C18.1935 30.2248 17.1906 32.6593 17.1875 35.5208C17.1844 38.3823 18.1874 40.8176 20.1965 42.8266C22.2055 44.8357 24.64 45.8379 27.5 45.8333C30.36 45.8287 32.7953 44.8265 34.8058 42.8266ZM20.8863 24.8302C21.6196 24.3505 22.401 23.9647 23.2306 23.6729C24.0617 23.3811 24.9165 23.1672 25.795 23.0312L20.5792 12.6912H14.85L20.8863 24.8302ZM16.5619 43.3927C16.5878 43.136 16.6474 42.8534 16.7406 42.5448C16.8323 42.2331 16.9667 41.9046 17.144 41.5594C16.4381 40.4181 15.9294 39.1859 15.6177 37.8629C15.306 36.5398 15.2243 35.1778 15.3725 33.7769C15.3725 32.631 15.5711 31.5432 15.9683 30.5135C16.364 29.4853 16.914 28.5603 17.6183 27.7383C17.0729 27.8315 16.5932 28.0271 16.1792 28.325C15.7651 28.6244 15.4695 28.9812 15.2923 29.3952C13.5888 29.8092 12.2612 30.7679 11.3094 32.2712C10.3576 33.7746 10.0665 35.4398 10.4362 37.2671C10.4362 38.9705 11.0313 40.4173 12.2215 41.6075C13.4116 42.7976 14.8584 43.3942 16.5619 43.3927ZM38.4381 43.3904C40.5129 43.2682 42.2644 42.4554 43.6929 40.9521C45.1199 39.4503 45.8333 37.6398 45.8333 35.5208C45.8333 33.4018 45.1191 31.5914 43.6906 30.0896C42.2622 28.5878 40.5113 27.7742 38.4381 27.6489C38.2624 27.6489 38.0867 27.6566 37.911 27.6719C37.7338 27.6871 37.5566 27.7093 37.3794 27.7383C38.2349 28.8169 38.9026 30.0178 39.3823 31.3408C39.8635 32.6639 40.1042 34.0572 40.1042 35.5208C40.1042 36.9844 39.8643 38.3778 39.3846 39.7008C38.9033 41.0239 38.2357 42.2247 37.3817 43.3033C37.5574 43.3339 37.7331 43.356 37.9088 43.3698C38.086 43.385 38.2624 43.3904 38.4381 43.3904ZM23.336 47.4444C22.0313 46.9906 20.8458 46.3375 19.7794 45.485C19.376 45.6194 18.9513 45.7111 18.5052 45.76C18.0591 45.8089 17.6008 45.8333 17.1302 45.8333C14.3008 45.8333 11.8846 44.8319 9.88167 42.8289C7.87875 40.826 6.87653 38.4091 6.875 35.5781C6.875 32.7838 7.85049 30.3936 9.80146 28.4075C11.7524 26.4214 14.1159 25.3978 16.8919 25.3366C17.2158 25.3366 17.5244 25.3588 17.8177 25.4031C18.111 25.4459 18.4044 25.4971 18.6977 25.5566L12.4621 13.0625C12.1382 12.4453 12.1596 11.8471 12.5263 11.2681C12.8914 10.6906 13.4253 10.4019 14.1281 10.4019H19.7542C20.4569 10.4019 21.0956 10.5867 21.67 10.9564C22.2444 11.3262 22.6974 11.8196 23.029 12.4369L27.5 21.3285L31.9688 12.4369C32.3003 11.8196 32.7533 11.3262 33.3277 10.9564C33.9022 10.5867 34.5408 10.4019 35.2435 10.4019H40.8742C41.5769 10.4019 42.1117 10.6906 42.4783 11.2681C42.8435 11.8487 42.8641 12.4468 42.5402 13.0625L36.4031 25.3985C36.6674 25.3389 36.9394 25.2946 37.219 25.2656C37.497 25.235 37.7835 25.2198 38.0783 25.2198C40.8833 25.2916 43.259 26.3205 45.2054 28.3066C47.1518 30.2928 48.125 32.6975 48.125 35.5208C48.125 38.3885 47.1235 40.8245 45.1206 42.8289C43.1177 44.8334 40.6817 45.8348 37.8125 45.8333C37.3511 45.8333 36.9027 45.8089 36.4673 45.76C36.0319 45.7111 35.6117 45.6194 35.2069 45.485C34.142 46.3084 32.958 46.9539 31.6548 47.4214C30.3516 47.8889 28.9667 48.1235 27.5 48.125C26.0333 48.1265 24.6461 47.8996 23.3383 47.4444M27.5 38.0416L25.0456 39.8979C24.8455 40.0293 24.6606 40.0316 24.491 39.9048C24.3215 39.778 24.2741 39.6099 24.349 39.4006L25.261 36.3435L22.8502 34.6041C22.6516 34.4728 22.5905 34.3047 22.6669 34.1C22.7433 33.8953 22.8899 33.7929 23.1069 33.7929H26.1044L27.06 30.5983C27.1364 30.3905 27.2831 30.2866 27.5 30.2866C27.7169 30.2866 27.8636 30.3905 27.94 30.5983L28.8956 33.7929H31.8931C32.1101 33.7929 32.2567 33.8953 32.3331 34.1C32.4095 34.3047 32.3484 34.4728 32.1498 34.6041L29.739 36.3458L30.651 39.3983C30.7274 39.6076 30.6808 39.7757 30.5113 39.9025C30.3417 40.0293 30.156 40.0278 29.9544 39.8979L27.5 38.0416ZM34.116 24.8302L40.205 12.6935H34.4208L29.4181 22.6073L29.6702 23.1114C30.4692 23.2642 31.2423 23.4781 31.9894 23.7531C32.7349 24.0281 33.4438 24.3871 34.116 24.8302Z" fill="black"/>
</svg>
