<svg width="460" height="444" viewBox="0 0 460 444" fill="none" xmlns="http://www.w3.org/2000/svg">
<path d="M243.247 442.129C341.278 442.129 420.747 355.994 420.747 249.741C420.747 143.487 341.278 57.3518 243.247 57.3518C145.216 57.3518 65.7468 143.487 65.7468 249.741C65.7468 355.994 145.216 442.129 243.247 442.129Z" stroke="black" stroke-opacity="0.06" stroke-width="2" stroke-linecap="round" stroke-linejoin="round"/>
<path d="M195.916 70.1777C217.271 83.1101 237.333 102.243 235.651 127.194C234.307 147.133 218.574 151.583 215.283 166.001C211.995 180.42 231.028 196.15 198.829 219.42C177.364 234.933 112.737 264.422 65.7468 236.915" stroke="black" stroke-opacity="0.06" stroke-width="2" stroke-linecap="round"/>
<path d="M71.6648 243.328C36.1648 267.547 -16.279 333.378 6.58674 378C36.1634 435.716 148.585 386.857 278.748 275.392C408.912 163.927 458.958 1 458.958 1L397.086 18.8739" stroke="black" stroke-opacity="0.06" stroke-width="2" stroke-linecap="round" stroke-linejoin="round"/>
<path d="M266.921 442.129C266.921 442.129 272.834 378 314.247 339.522C355.66 301.044 408.922 301.044 408.922 301.044" stroke="black" stroke-opacity="0.06" stroke-width="2" stroke-linecap="round"/>
</svg>
