<svg width="33" height="33" viewBox="0 0 33 33" fill="none" xmlns="http://www.w3.org/2000/svg">
<path d="M22.1624 -9.696e-05C23.0999 -9.696e-05 23.9999 0.121778 24.8624 0.365528C25.7343 0.609278 26.5452 0.951466 27.2952 1.39209C28.0546 1.83272 28.7437 2.3624 29.3624 2.98115C29.9812 3.5999 30.5108 4.28897 30.9515 5.04834C31.3921 5.79834 31.7343 6.60928 31.978 7.48115C32.2218 8.34365 32.3437 9.24365 32.3437 10.1812C32.3437 11.5593 32.0858 12.8624 31.5702 14.0905C31.064 15.3093 30.328 16.4062 29.3624 17.3812L23.4562 23.3577C23.2968 23.5171 23.128 23.6671 22.9499 23.8077C22.7718 23.939 22.603 24.0796 22.4437 24.2296C21.5624 25.0452 20.714 25.8937 19.8983 26.7749C19.0921 27.6655 18.2577 28.5233 17.3952 29.3483C16.3733 30.3233 15.2671 31.064 14.0765 31.5702C12.8952 32.0858 11.5968 32.3437 10.1812 32.3437C9.24365 32.3437 8.33896 32.2218 7.46709 31.978C6.60459 31.7343 5.79365 31.3921 5.03428 30.9515C4.28428 30.5108 3.5999 29.9812 2.98115 29.3624C2.3624 28.7437 1.83271 28.0546 1.39209 27.2952C0.951465 26.5452 0.609277 25.739 0.365527 24.8765C0.121777 24.0046 -9.77516e-05 23.0999 -9.77516e-05 22.1624C-9.77516e-05 20.7843 0.253027 19.4858 0.759277 18.2671C1.2749 17.039 2.01553 15.9374 2.98115 14.9624L8.8874 8.98584C9.04678 8.82647 9.21553 8.68115 9.39365 8.5499C9.57178 8.40928 9.74053 8.26397 9.8999 8.11397C10.3405 7.71084 10.7671 7.29365 11.1796 6.8624C11.6015 6.43115 12.0187 5.9999 12.4312 5.56865C12.8437 5.12803 13.2562 4.69209 13.6687 4.26084C14.0905 3.82959 14.5171 3.40772 14.9483 2.99522C15.9702 2.02022 17.0718 1.27959 18.253 0.773341C19.4437 0.257716 20.7468 -9.696e-05 22.1624 -9.696e-05ZM16.2421 24.328C17.2546 24.328 18.1452 24.1827 18.914 23.8921C19.6827 23.5921 20.3952 23.203 21.0515 22.7249C21.7077 22.2374 22.3265 21.6843 22.9077 21.0655C23.4983 20.4468 24.1171 19.8093 24.764 19.153L27.928 15.9468C28.7062 15.1499 29.2968 14.2687 29.6999 13.303C30.1124 12.328 30.3187 11.2874 30.3187 10.1812C30.3187 9.05615 30.103 8.00147 29.6718 7.01709C29.2499 6.02334 28.6687 5.15615 27.928 4.41553C27.1874 3.6749 26.3202 3.09365 25.3265 2.67178C24.3421 2.24053 23.2874 2.0249 22.1624 2.0249C21.0562 2.0249 20.0155 2.22647 19.0405 2.62959C18.0655 3.02334 17.1843 3.61865 16.3968 4.41553L13.4437 7.39678C13.8655 7.26553 14.2874 7.16709 14.7093 7.10147C15.1405 7.03584 15.5718 7.00303 16.003 7.00303C16.1343 7.00303 16.2468 7.00772 16.3405 7.01709C16.4437 7.02647 16.5468 7.03115 16.6499 7.03115C17.0718 6.5999 17.4749 6.20147 17.8593 5.83584C18.2437 5.47022 18.6468 5.15615 19.0687 4.89365C19.4905 4.62178 19.9499 4.41553 20.4468 4.2749C20.9437 4.1249 21.5155 4.0499 22.1624 4.0499C23.0062 4.0499 23.7983 4.20928 24.539 4.52803C25.289 4.84678 25.9405 5.2874 26.4937 5.8499C27.0562 6.40303 27.4968 7.05459 27.8155 7.80459C28.1343 8.54522 28.2937 9.3374 28.2937 10.1812C28.2937 10.9593 28.1718 11.6483 27.928 12.2483C27.6937 12.8483 27.3843 13.4062 26.9999 13.9218C26.6155 14.428 26.1796 14.9155 25.6921 15.3843C25.214 15.8437 24.7265 16.3218 24.2296 16.8187C23.6202 17.4374 23.0155 18.0562 22.4155 18.6749C21.8155 19.2937 21.2062 19.9077 20.5874 20.5171C19.9968 21.0983 19.3312 21.5437 18.5905 21.853C17.8593 22.153 17.0765 22.303 16.2421 22.303C15.3983 22.303 14.6015 22.1437 13.8515 21.8249C13.1108 21.5062 12.4593 21.0702 11.8968 20.5171C11.3437 19.9546 10.9077 19.303 10.589 18.5624C10.2702 17.8124 10.1108 17.0155 10.1108 16.1718C10.1108 15.7124 10.1624 15.2483 10.2655 14.7796L8.12803 16.9452C8.22178 17.9858 8.49834 18.9562 8.95771 19.8562C9.42646 20.7562 10.0265 21.539 10.7577 22.2046C11.489 22.8608 12.3233 23.3812 13.2608 23.7655C14.2077 24.1405 15.2015 24.328 16.2421 24.328ZM10.1812 30.3187C11.2874 30.3187 12.3233 30.1124 13.289 29.6999C14.264 29.2968 15.1499 28.7062 15.9468 27.928C16.453 27.4405 16.9452 26.9483 17.4233 26.4515C17.9015 25.9546 18.389 25.453 18.8858 24.9468C18.4733 25.078 18.0562 25.1765 17.6343 25.2421C17.2218 25.3077 16.7999 25.3405 16.3687 25.3405C16.2562 25.3405 16.1437 25.3405 16.0312 25.3405C15.9187 25.3312 15.8062 25.3218 15.6937 25.3124C15.2718 25.7437 14.8687 26.1421 14.4843 26.5077C14.0999 26.8733 13.6968 27.1874 13.2749 27.4499C12.853 27.7218 12.3937 27.9327 11.8968 28.0827C11.3999 28.2327 10.828 28.3077 10.1812 28.3077C9.3374 28.3077 8.54053 28.1437 7.79053 27.8155C7.04053 27.4968 6.38896 27.0608 5.83584 26.5077C5.28271 25.9546 4.84209 25.303 4.51396 24.553C4.19521 23.803 4.03584 23.0062 4.03584 22.1624C4.03584 21.3937 4.15303 20.7093 4.3874 20.1093C4.63115 19.4999 4.94521 18.9421 5.32959 18.4358C5.71396 17.9202 6.1499 17.4327 6.6374 16.9733C7.1249 16.5046 7.61709 16.0218 8.11396 15.5249C8.73271 14.9062 9.3374 14.2874 9.92803 13.6687C10.528 13.0499 11.1374 12.4358 11.7562 11.8265C12.3468 11.2452 13.0077 10.8046 13.739 10.5046C14.4796 10.1952 15.2671 10.0405 16.1015 10.0405C16.9452 10.0405 17.7374 10.1999 18.478 10.5187C19.228 10.8374 19.8796 11.278 20.4327 11.8405C20.9952 12.3937 21.4358 13.0452 21.7546 13.7952C22.0733 14.5358 22.2327 15.328 22.2327 16.1718C22.2327 16.6499 22.1765 17.114 22.064 17.564L24.2155 15.3983C24.1218 14.3577 23.8405 13.3874 23.3718 12.4874C22.9124 11.5874 22.3171 10.8093 21.5858 10.153C20.8546 9.4874 20.0155 8.96709 19.0687 8.59209C18.1312 8.20772 17.1421 8.01553 16.1015 8.01553C15.0796 8.01553 14.1843 8.16084 13.4155 8.45147C12.6468 8.74209 11.939 9.13115 11.2921 9.61865C10.6452 10.0968 10.0265 10.6499 9.43584 11.278C8.84521 11.8968 8.22646 12.5343 7.57959 13.1905L4.41553 16.3968C3.61865 17.203 3.01865 18.0843 2.61553 19.0405C2.22178 19.9874 2.0249 21.028 2.0249 22.1624C2.0249 23.2874 2.23584 24.3468 2.65771 25.3405C3.08896 26.3343 3.67021 27.1968 4.40146 27.928C5.14209 28.6687 6.00928 29.2499 7.00303 29.6718C7.99678 30.103 9.05615 30.3187 10.1812 30.3187ZM20.2077 16.1718C20.2077 15.5999 20.0999 15.0655 19.8843 14.5687C19.6687 14.0718 19.3733 13.6358 18.9983 13.2608C18.6327 12.8858 18.2015 12.5905 17.7046 12.3749C17.2077 12.1593 16.6733 12.0515 16.1015 12.0515C15.9327 12.0515 15.7452 12.0655 15.539 12.0937C15.3421 12.1218 15.1405 12.164 14.9343 12.2202C14.7374 12.2765 14.5452 12.3468 14.3577 12.4312C14.1796 12.5062 14.0202 12.5999 13.8796 12.7124C13.3452 13.1343 12.9187 13.6452 12.5999 14.2452C12.2812 14.8452 12.1218 15.4874 12.1218 16.1718C12.1218 16.7343 12.2296 17.2687 12.4452 17.7749C12.6608 18.2718 12.9562 18.7077 13.3312 19.0827C13.7062 19.4577 14.1421 19.753 14.639 19.9687C15.1452 20.1843 15.6796 20.2921 16.2421 20.2921C16.4202 20.2921 16.6077 20.278 16.8046 20.2499C17.0108 20.2218 17.2124 20.1843 17.4093 20.1374C17.6062 20.0812 17.7937 20.0108 17.9718 19.9265C18.1593 19.8421 18.3233 19.7437 18.464 19.6312C18.9983 19.2093 19.4202 18.6983 19.7296 18.0983C20.0483 17.4983 20.2077 16.8562 20.2077 16.1718Z" fill="#1A2E30"/>
</svg>
