<svg width="31" height="33" viewBox="0 0 31 33" fill="none" xmlns="http://www.w3.org/2000/svg">
<path d="M16.9593 12.1358H28.2937C28.5749 12.1358 28.8374 12.1921 29.0812 12.3046C29.3249 12.4077 29.5358 12.553 29.714 12.7405C29.9015 12.9187 30.0468 13.1296 30.1499 13.3733C30.2624 13.6171 30.3187 13.8796 30.3187 14.1608C30.3187 14.714 30.1218 15.1874 29.728 15.5812L13.5562 31.753C13.3687 31.9405 13.1483 32.0858 12.8952 32.189C12.6515 32.2921 12.3937 32.3437 12.1218 32.3437C11.8405 32.3437 11.578 32.2921 11.3343 32.189C11.0905 32.0858 10.8749 31.9405 10.6874 31.753C10.5093 31.5749 10.3687 31.3593 10.2655 31.1062C10.1624 30.8624 10.1108 30.5999 10.1108 30.3187C10.1108 30.0937 10.1437 29.8827 10.2093 29.6858L13.3733 20.2218H2.0249C1.74365 20.2218 1.47646 20.1702 1.22334 20.0671C0.97959 19.964 0.763965 19.8233 0.576465 19.6452C0.39834 19.4577 0.257715 19.2421 0.15459 18.9983C0.0514647 18.7452 -9.77516e-05 18.478 -9.77516e-05 18.1968C-9.77516e-05 17.9249 0.0514647 17.6671 0.15459 17.4233C0.257715 17.1702 0.403027 16.9499 0.590527 16.7624L16.7624 0.590528C16.9499 0.403028 17.1655 0.257716 17.4093 0.154591C17.6624 0.0514655 17.9249 -9.696e-05 18.1968 -9.696e-05C18.478 -9.696e-05 18.7405 0.056153 18.9843 0.168653C19.228 0.271778 19.439 0.417091 19.6171 0.604591C19.8046 0.782716 19.9499 0.993653 20.053 1.2374C20.1562 1.48115 20.2077 1.74365 20.2077 2.0249C20.2077 2.25928 20.1749 2.4749 20.1093 2.67178L16.9593 12.1358ZM12.1218 30.3187L28.2937 14.1468H14.1468L18.1968 2.0249L2.0249 18.1968H16.1718L12.1218 30.3187Z" fill="#1A2E30"/>
</svg>
